<mxfile host="65bd71144e">
    <diagram id="spark-mind-architecture" name="ForeKnow System Architecture">
        <mxGraphModel dx="343" dy="245" grid="1" gridSize="10" guides="1" tooltips="1" connect="1" arrows="1" fold="1" page="1" pageScale="1" pageWidth="1654" pageHeight="2339" math="0" shadow="0">
            <root>
                <mxCell id="0"/>
                <mxCell id="1" parent="0"/>
                <mxCell id="title" value="ForeKnow - Dementia Early Detection System" style="text;html=1;align=center;verticalAlign=middle;whiteSpace=wrap;rounded=0;fontSize=24;fontStyle=1;fillColor=#e1d5e7;strokeColor=#9673a6;" parent="1" vertex="1">
                    <mxGeometry x="500" y="20" width="654" height="40" as="geometry"/>
                </mxCell>
                <mxCell id="frontend-layer" value="Frontend Layer (Next.js)" style="swimlane;whiteSpace=wrap;html=1;fontSize=16;fontStyle=1;fillColor=#dae8fc;strokeColor=#6c8ebf;" parent="1" vertex="1">
                    <mxGeometry x="50" y="100" width="750" height="400" as="geometry"/>
                </mxCell>
                <mxCell id="auth-system" value="Authentication System" style="rounded=1;whiteSpace=wrap;html=1;fillColor=#fff2cc;strokeColor=#d6b656;fontSize=12;fontStyle=1;" parent="frontend-layer" vertex="1">
                    <mxGeometry x="20" y="40" width="150" height="60" as="geometry"/>
                </mxCell>
                <mxCell id="user-interface" value="User Interface&#xa;(React Components)" style="rounded=1;whiteSpace=wrap;html=1;fillColor=#f8cecc;strokeColor=#b85450;fontSize=12;fontStyle=1;" parent="frontend-layer" vertex="1">
                    <mxGeometry x="200" y="40" width="150" height="60" as="geometry"/>
                </mxCell>
                <mxCell id="games-suite" value="Cognitive Games Suite" style="rounded=1;whiteSpace=wrap;html=1;fillColor=#d5e8d4;strokeColor=#82b366;fontSize=12;fontStyle=1;" parent="frontend-layer" vertex="1">
                    <mxGeometry x="380" y="40" width="150" height="60" as="geometry"/>
                </mxCell>
                <mxCell id="dashboard" value="Dashboard &amp; Results" style="rounded=1;whiteSpace=wrap;html=1;fillColor=#e1d5e7;strokeColor=#9673a6;fontSize=12;fontStyle=1;" parent="frontend-layer" vertex="1">
                    <mxGeometry x="560" y="40" width="150" height="60" as="geometry"/>
                </mxCell>
                <mxCell id="stroop-game" value="Stroop Color Test&#xa;• Color-word interference&#xa;• 60-second timer&#xa;• Response tracking" style="rounded=1;whiteSpace=wrap;html=1;fillColor=#d5e8d4;strokeColor=#82b366;fontSize=10;" parent="frontend-layer" vertex="1">
                    <mxGeometry x="50" y="130" width="140" height="80" as="geometry"/>
                </mxCell>
                <mxCell id="memory-game" value="Memory Game&#xa;• Card matching&#xa;• Multiple difficulty&#xa;• Move tracking" style="rounded=1;whiteSpace=wrap;html=1;fillColor=#d5e8d4;strokeColor=#82b366;fontSize=10;" parent="frontend-layer" vertex="1">
                    <mxGeometry x="210" y="130" width="140" height="80" as="geometry"/>
                </mxCell>
                <mxCell id="matching-game" value="Object-Purpose Matching&#xa;• Drag-and-drop&#xa;• Progressive difficulty&#xa;• Visual feedback" style="rounded=1;whiteSpace=wrap;html=1;fillColor=#d5e8d4;strokeColor=#82b366;fontSize=10;" parent="frontend-layer" vertex="1">
                    <mxGeometry x="370" y="130" width="140" height="80" as="geometry"/>
                </mxCell>
                <mxCell id="speech-game" value="Speech Fluency Test&#xa;• Audio recording&#xa;• Microphone handling&#xa;• Multiple tasks" style="rounded=1;whiteSpace=wrap;html=1;fillColor=#d5e8d4;strokeColor=#82b366;fontSize=10;" parent="frontend-layer" vertex="1">
                    <mxGeometry x="530" y="130" width="140" height="80" as="geometry"/>
                </mxCell>
                <mxCell id="api-layer" value="API Integration Layer" style="rounded=1;whiteSpace=wrap;html=1;fillColor=#ffe6cc;strokeColor=#d79b00;fontSize=12;fontStyle=1;" parent="frontend-layer" vertex="1">
                    <mxGeometry x="50" y="240" width="650" height="40" as="geometry"/>
                </mxCell>
                <mxCell id="navigation" value="Navigation &amp; Layout&#xa;• Responsive design&#xa;• Protected routes&#xa;• Mobile-first" style="rounded=1;whiteSpace=wrap;html=1;fillColor=#f8cecc;strokeColor=#b85450;fontSize=10;" parent="frontend-layer" vertex="1">
                    <mxGeometry x="50" y="300" width="140" height="80" as="geometry"/>
                </mxCell>
                <mxCell id="session-mgmt" value="Session Management&#xa;• NextAuth.js&#xa;• JWT tokens&#xa;• Auto refresh" style="rounded=1;whiteSpace=wrap;html=1;fillColor=#fff2cc;strokeColor=#d6b656;fontSize=10;" parent="frontend-layer" vertex="1">
                    <mxGeometry x="210" y="300" width="140" height="80" as="geometry"/>
                </mxCell>
                <mxCell id="charts" value="Charts &amp; Analytics&#xa;• Chart.js/Recharts&#xa;• Progress tracking&#xa;• Risk visualization" style="rounded=1;whiteSpace=wrap;html=1;fillColor=#e1d5e7;strokeColor=#9673a6;fontSize=10;" parent="frontend-layer" vertex="1">
                    <mxGeometry x="370" y="300" width="140" height="80" as="geometry"/>
                </mxCell>
                <mxCell id="api-utils" value="API Utilities&#xa;• Error handling&#xa;• Request/Response&#xa;• File uploads" style="rounded=1;whiteSpace=wrap;html=1;fillColor=#ffe6cc;strokeColor=#d79b00;fontSize=10;" parent="frontend-layer" vertex="1">
                    <mxGeometry x="530" y="300" width="140" height="80" as="geometry"/>
                </mxCell>
                <mxCell id="backend-layer" value="Backend Layer (Python/FastAPI)" style="swimlane;whiteSpace=wrap;html=1;fontSize=16;fontStyle=1;fillColor=#f8cecc;strokeColor=#b85450;" parent="1" vertex="1">
                    <mxGeometry x="900" y="100" width="650" height="400" as="geometry"/>
                </mxCell>
                <mxCell id="api-endpoints" value="REST API Endpoints" style="rounded=1;whiteSpace=wrap;html=1;fillColor=#fff2cc;strokeColor=#d6b656;fontSize=12;fontStyle=1;" parent="backend-layer" vertex="1">
                    <mxGeometry x="50" y="40" width="550" height="40" as="geometry"/>
                </mxCell>
                <mxCell id="health-endpoint" value="/health&#xa;Health Check" style="rounded=1;whiteSpace=wrap;html=1;fillColor=#fff2cc;strokeColor=#d6b656;fontSize=10;" parent="backend-layer" vertex="1">
                    <mxGeometry x="50" y="100" width="100" height="50" as="geometry"/>
                </mxCell>
                <mxCell id="games-endpoint" value="/api/games/results&#xa;Game Results" style="rounded=1;whiteSpace=wrap;html=1;fillColor=#fff2cc;strokeColor=#d6b656;fontSize=10;" parent="backend-layer" vertex="1">
                    <mxGeometry x="170" y="100" width="100" height="50" as="geometry"/>
                </mxCell>
                <mxCell id="speech-endpoint" value="/api/speech/upload&#xa;Speech Upload" style="rounded=1;whiteSpace=wrap;html=1;fillColor=#fff2cc;strokeColor=#d6b656;fontSize=10;" parent="backend-layer" vertex="1">
                    <mxGeometry x="290" y="100" width="100" height="50" as="geometry"/>
                </mxCell>
                <mxCell id="results-endpoint" value="/api/results&#xa;Results API" style="rounded=1;whiteSpace=wrap;html=1;fillColor=#fff2cc;strokeColor=#d6b656;fontSize=10;" parent="backend-layer" vertex="1">
                    <mxGeometry x="410" y="100" width="100" height="50" as="geometry"/>
                </mxCell>
                <mxCell id="report-endpoint" value="/api/results/report&#xa;PDF Reports" style="rounded=1;whiteSpace=wrap;html=1;fillColor=#fff2cc;strokeColor=#d6b656;fontSize=10;" parent="backend-layer" vertex="1">
                    <mxGeometry x="530" y="100" width="100" height="50" as="geometry"/>
                </mxCell>
                <mxCell id="ai-pipeline" value="AI Analysis Pipeline" style="rounded=1;whiteSpace=wrap;html=1;fillColor=#e1d5e7;strokeColor=#9673a6;fontSize=12;fontStyle=1;" parent="backend-layer" vertex="1">
                    <mxGeometry x="50" y="180" width="200" height="40" as="geometry"/>
                </mxCell>
                <mxCell id="data-processing" value="Data Processing" style="rounded=1;whiteSpace=wrap;html=1;fillColor=#d5e8d4;strokeColor=#82b366;fontSize=12;fontStyle=1;" parent="backend-layer" vertex="1">
                    <mxGeometry x="280" y="180" width="150" height="40" as="geometry"/>
                </mxCell>
                <mxCell id="report-generation" value="Report Generation" style="rounded=1;whiteSpace=wrap;html=1;fillColor=#ffe6cc;strokeColor=#d79b00;fontSize=12;fontStyle=1;" parent="backend-layer" vertex="1">
                    <mxGeometry x="450" y="180" width="150" height="40" as="geometry"/>
                </mxCell>
                <mxCell id="ai-agent" value="AI Agent&#xa;• AiAgent.py&#xa;• Pipeline orchestration" style="rounded=1;whiteSpace=wrap;html=1;fillColor=#e1d5e7;strokeColor=#9673a6;fontSize=10;" parent="backend-layer" vertex="1">
                    <mxGeometry x="50" y="240" width="120" height="60" as="geometry"/>
                </mxCell>
                <mxCell id="speech-to-text" value="Speech-to-Text&#xa;• SpeechToText.py&#xa;• Whisper integration" style="rounded=1;whiteSpace=wrap;html=1;fillColor=#e1d5e7;strokeColor=#9673a6;fontSize=10;" parent="backend-layer" vertex="1">
                    <mxGeometry x="190" y="240" width="120" height="60" as="geometry"/>
                </mxCell>
                <mxCell id="sentiment-analysis" value="Sentiment Analysis&#xa;• SentimentAnalyzer.py&#xa;• Pattern analysis" style="rounded=1;whiteSpace=wrap;html=1;fillColor=#e1d5e7;strokeColor=#9673a6;fontSize=10;" parent="backend-layer" vertex="1">
                    <mxGeometry x="330" y="240" width="120" height="60" as="geometry"/>
                </mxCell>
                <mxCell id="memory-scorer" value="Memory Scorer&#xa;• MemoryGameScore.py&#xa;• Game analysis" style="rounded=1;whiteSpace=wrap;html=1;fillColor=#e1d5e7;strokeColor=#9673a6;fontSize=10;" parent="backend-layer" vertex="1">
                    <mxGeometry x="470" y="240" width="120" height="60" as="geometry"/>
                </mxCell>
                <mxCell id="risk-engine" value="Risk Assessment Engine&#xa;• Heuristic scoring&#xa;• Pattern recognition&#xa;• Non-diagnostic analysis" style="rounded=1;whiteSpace=wrap;html=1;fillColor=#f8cecc;strokeColor=#b85450;fontSize=10;" parent="backend-layer" vertex="1">
                    <mxGeometry x="50" y="320" width="180" height="60" as="geometry"/>
                </mxCell>
                <mxCell id="pdf-generator" value="PDF Generator&#xa;• Report creation&#xa;• Template system&#xa;• Download links" style="rounded=1;whiteSpace=wrap;html=1;fillColor=#ffe6cc;strokeColor=#d79b00;fontSize=10;" parent="backend-layer" vertex="1">
                    <mxGeometry x="250" y="320" width="180" height="60" as="geometry"/>
                </mxCell>
                <mxCell id="file-storage" value="File Storage&#xa;• Audio files&#xa;• Generated reports&#xa;• Metrics cache" style="rounded=1;whiteSpace=wrap;html=1;fillColor=#d5e8d4;strokeColor=#82b366;fontSize=10;" parent="backend-layer" vertex="1">
                    <mxGeometry x="450" y="320" width="150" height="60" as="geometry"/>
                </mxCell>
                <mxCell id="external-services" value="External Services" style="swimlane;whiteSpace=wrap;html=1;fontSize=16;fontStyle=1;fillColor=#fff2cc;strokeColor=#d6b656;" parent="1" vertex="1">
                    <mxGeometry x="50" y="550" width="400" height="200" as="geometry"/>
                </mxCell>
                <mxCell id="google-oauth" value="Google OAuth 2.0&#xa;• User authentication&#xa;• Session management&#xa;• Secure login" style="rounded=1;whiteSpace=wrap;html=1;fillColor=#fff2cc;strokeColor=#d6b656;fontSize=10;" parent="external-services" vertex="1">
                    <mxGeometry x="30" y="40" width="120" height="70" as="geometry"/>
                </mxCell>
                <mxCell id="openai-api" value="Gemini 2.0 Flash&lt;br&gt;• AI analysis&lt;br&gt;• Report generation&lt;br&gt;• Content creation" style="rounded=1;whiteSpace=wrap;html=1;fillColor=#fff2cc;strokeColor=#d6b656;fontSize=10;" parent="external-services" vertex="1">
                    <mxGeometry x="170" y="40" width="120" height="70" as="geometry"/>
                </mxCell>
                <mxCell id="cloud-speech" value="Cloud Speech API&#xa;• Speech-to-text&#xa;• Audio processing&#xa;• Transcription" style="rounded=1;whiteSpace=wrap;html=1;fillColor=#fff2cc;strokeColor=#d6b656;fontSize=10;" parent="external-services" vertex="1">
                    <mxGeometry x="100" y="130" width="120" height="70" as="geometry"/>
                </mxCell>
                <mxCell id="speech-to-cloud" style="edgeStyle=orthogonalEdgeStyle;rounded=0;orthogonalLoop=1;jettySize=auto;html=1;strokeColor=#d6b656;strokeWidth=2;fillColor=#fff2cc;exitX=0.5;exitY=1;exitDx=0;exitDy=0;entryX=1;entryY=0.5;entryDx=0;entryDy=0;" parent="external-services" target="cloud-speech" edge="1">
                    <mxGeometry relative="1" as="geometry">
                        <mxPoint x="1110" y="-150" as="sourcePoint"/>
                        <mxPoint x="230" y="165" as="targetPoint"/>
                        <Array as="points">
                            <mxPoint x="1100" y="-150"/>
                            <mxPoint x="1100" y="-40"/>
                            <mxPoint x="360" y="-40"/>
                            <mxPoint x="360" y="160"/>
                            <mxPoint x="230" y="160"/>
                            <mxPoint x="230" y="165"/>
                        </Array>
                    </mxGeometry>
                </mxCell>
                <mxCell id="data-storage" value="Data Storage" style="swimlane;whiteSpace=wrap;html=1;fontSize=16;fontStyle=1;fillColor=#d5e8d4;strokeColor=#82b366;" parent="1" vertex="1">
                    <mxGeometry x="500" y="550" width="400" height="200" as="geometry"/>
                </mxCell>
                <mxCell id="user-data" value="User Data&#xa;• Profile information&#xa;• Authentication&#xa;• Preferences" style="ellipse;whiteSpace=wrap;html=1;fillColor=#d5e8d4;strokeColor=#82b366;fontSize=10;" parent="data-storage" vertex="1">
                    <mxGeometry x="30" y="40" width="100" height="70" as="geometry"/>
                </mxCell>
                <mxCell id="game-results" value="Game Results&#xa;• Scores &amp; metrics&#xa;• Performance data&#xa;• Historical records" style="ellipse;whiteSpace=wrap;html=1;fillColor=#d5e8d4;strokeColor=#82b366;fontSize=10;" parent="data-storage" vertex="1">
                    <mxGeometry x="150" y="40" width="100" height="70" as="geometry"/>
                </mxCell>
                <mxCell id="audio-files" value="Audio Files&#xa;• Speech recordings&#xa;• WebM format&#xa;• Processing cache" style="ellipse;whiteSpace=wrap;html=1;fillColor=#d5e8d4;strokeColor=#82b366;fontSize=10;" parent="data-storage" vertex="1">
                    <mxGeometry x="270" y="40" width="100" height="70" as="geometry"/>
                </mxCell>
                <mxCell id="reports" value="Generated Reports&#xa;• PDF documents&#xa;• Risk assessments&#xa;• Analysis summaries" style="ellipse;whiteSpace=wrap;html=1;fillColor=#d5e8d4;strokeColor=#82b366;fontSize=10;" parent="data-storage" vertex="1">
                    <mxGeometry x="90" y="130" width="100" height="70" as="geometry"/>
                </mxCell>
                <mxCell id="metrics" value="Metrics Cache&#xa;• Performance data&#xa;• Analysis results&#xa;• JSON storage" style="ellipse;whiteSpace=wrap;html=1;fillColor=#d5e8d4;strokeColor=#82b366;fontSize=10;" parent="data-storage" vertex="1">
                    <mxGeometry x="210" y="130" width="100" height="70" as="geometry"/>
                </mxCell>
                <mxCell id="report-to-storage" style="edgeStyle=orthogonalEdgeStyle;rounded=0;orthogonalLoop=1;jettySize=auto;html=1;strokeColor=#d79b00;strokeWidth=2;fillColor=#ffe6cc;" parent="data-storage" source="report-generation" target="reports" edge="1">
                    <mxGeometry relative="1" as="geometry">
                        <Array as="points">
                            <mxPoint x="260" y="-250"/>
                            <mxPoint x="260" y="120"/>
                            <mxPoint x="140" y="120"/>
                        </Array>
                    </mxGeometry>
                </mxCell>
                <mxCell id="user-flow" value="User Flow &amp; Process" style="swimlane;whiteSpace=wrap;html=1;fontSize=16;fontStyle=1;fillColor=#e1d5e7;strokeColor=#9673a6;" parent="1" vertex="1">
                    <mxGeometry x="950" y="550" width="600" height="400" as="geometry"/>
                </mxCell>
                <mxCell id="auth-flow" value="1. Authentication Flow" style="rounded=1;whiteSpace=wrap;html=1;fillColor=#fff2cc;strokeColor=#d6b656;fontSize=12;fontStyle=1;" parent="user-flow" vertex="1">
                    <mxGeometry x="20" y="30" width="160" height="30" as="geometry"/>
                </mxCell>
                <mxCell id="visit-site" value="Visit Website" style="rounded=1;whiteSpace=wrap;html=1;fillColor=#f8cecc;strokeColor=#b85450;fontSize=9;" parent="user-flow" vertex="1">
                    <mxGeometry x="20" y="70" width="80" height="30" as="geometry"/>
                </mxCell>
                <mxCell id="google-login" value="Google OAuth" style="rounded=1;whiteSpace=wrap;html=1;fillColor=#f8cecc;strokeColor=#b85450;fontSize=9;" parent="user-flow" vertex="1">
                    <mxGeometry x="110" y="70" width="80" height="30" as="geometry"/>
                </mxCell>
                <mxCell id="session-created" value="Session Created" style="rounded=1;whiteSpace=wrap;html=1;fillColor=#f8cecc;strokeColor=#b85450;fontSize=9;" parent="user-flow" vertex="1">
                    <mxGeometry x="200" y="70" width="80" height="30" as="geometry"/>
                </mxCell>
                <mxCell id="game-flow" value="2. Game Assessment Flow" style="rounded=1;whiteSpace=wrap;html=1;fillColor=#d5e8d4;strokeColor=#82b366;fontSize=12;fontStyle=1;" parent="user-flow" vertex="1">
                    <mxGeometry x="20" y="120" width="160" height="30" as="geometry"/>
                </mxCell>
                <mxCell id="select-game" value="Select Game" style="rounded=1;whiteSpace=wrap;html=1;fillColor=#d5e8d4;strokeColor=#82b366;fontSize=9;" parent="user-flow" vertex="1">
                    <mxGeometry x="20" y="160" width="70" height="30" as="geometry"/>
                </mxCell>
                <mxCell id="play-game" value="Play Game" style="rounded=1;whiteSpace=wrap;html=1;fillColor=#d5e8d4;strokeColor=#82b366;fontSize=9;" parent="user-flow" vertex="1">
                    <mxGeometry x="100" y="160" width="70" height="30" as="geometry"/>
                </mxCell>
                <mxCell id="collect-metrics" value="Collect Metrics" style="rounded=1;whiteSpace=wrap;html=1;fillColor=#d5e8d4;strokeColor=#82b366;fontSize=9;" parent="user-flow" vertex="1">
                    <mxGeometry x="180" y="160" width="70" height="30" as="geometry"/>
                </mxCell>
                <mxCell id="submit-api" value="Submit to API" style="rounded=1;whiteSpace=wrap;html=1;fillColor=#d5e8d4;strokeColor=#82b366;fontSize=9;" parent="user-flow" vertex="1">
                    <mxGeometry x="260" y="160" width="70" height="30" as="geometry"/>
                </mxCell>
                <mxCell id="analysis-flow" value="3. AI Analysis Flow" style="rounded=1;whiteSpace=wrap;html=1;fillColor=#e1d5e7;strokeColor=#9673a6;fontSize=12;fontStyle=1;" parent="user-flow" vertex="1">
                    <mxGeometry x="20" y="210" width="160" height="30" as="geometry"/>
                </mxCell>
                <mxCell id="process-data" value="Process Data" style="rounded=1;whiteSpace=wrap;html=1;fillColor=#e1d5e7;strokeColor=#9673a6;fontSize=9;" parent="user-flow" vertex="1">
                    <mxGeometry x="20" y="250" width="70" height="30" as="geometry"/>
                </mxCell>
                <mxCell id="ai-analysis" value="AI Analysis" style="rounded=1;whiteSpace=wrap;html=1;fillColor=#e1d5e7;strokeColor=#9673a6;fontSize=9;" parent="user-flow" vertex="1">
                    <mxGeometry x="100" y="250" width="70" height="30" as="geometry"/>
                </mxCell>
                <mxCell id="risk-calc" value="Risk Calculation" style="rounded=1;whiteSpace=wrap;html=1;fillColor=#e1d5e7;strokeColor=#9673a6;fontSize=9;" parent="user-flow" vertex="1">
                    <mxGeometry x="180" y="250" width="70" height="30" as="geometry"/>
                </mxCell>
                <mxCell id="generate-report" value="Generate Report" style="rounded=1;whiteSpace=wrap;html=1;fillColor=#e1d5e7;strokeColor=#9673a6;fontSize=9;" parent="user-flow" vertex="1">
                    <mxGeometry x="260" y="250" width="70" height="30" as="geometry"/>
                </mxCell>
                <mxCell id="results-flow" value="4. Results &amp; Reporting Flow" style="rounded=1;whiteSpace=wrap;html=1;fillColor=#ffe6cc;strokeColor=#d79b00;fontSize=12;fontStyle=1;" parent="user-flow" vertex="1">
                    <mxGeometry x="20" y="300" width="160" height="30" as="geometry"/>
                </mxCell>
                <mxCell id="view-dashboard" value="View Dashboard" style="rounded=1;whiteSpace=wrap;html=1;fillColor=#ffe6cc;strokeColor=#d79b00;fontSize=9;" parent="user-flow" vertex="1">
                    <mxGeometry x="20" y="340" width="70" height="30" as="geometry"/>
                </mxCell>
                <mxCell id="show-charts" value="Show Charts" style="rounded=1;whiteSpace=wrap;html=1;fillColor=#ffe6cc;strokeColor=#d79b00;fontSize=9;" parent="user-flow" vertex="1">
                    <mxGeometry x="100" y="340" width="70" height="30" as="geometry"/>
                </mxCell>
                <mxCell id="display-risk" value="Display Risk" style="rounded=1;whiteSpace=wrap;html=1;fillColor=#ffe6cc;strokeColor=#d79b00;fontSize=9;" parent="user-flow" vertex="1">
                    <mxGeometry x="180" y="340" width="70" height="30" as="geometry"/>
                </mxCell>
                <mxCell id="download-pdf" value="Download PDF" style="rounded=1;whiteSpace=wrap;html=1;fillColor=#ffe6cc;strokeColor=#d79b00;fontSize=9;" parent="user-flow" vertex="1">
                    <mxGeometry x="260" y="340" width="70" height="30" as="geometry"/>
                </mxCell>
                <mxCell id="speech-detail" value="Speech Test Detail" style="rounded=1;whiteSpace=wrap;html=1;fillColor=#f8cecc;strokeColor=#b85450;fontSize=12;fontStyle=1;" parent="user-flow" vertex="1">
                    <mxGeometry x="360" y="30" width="220" height="30" as="geometry"/>
                </mxCell>
                <mxCell id="mic-permission" value="Microphone&#xa;Permission" style="rounded=1;whiteSpace=wrap;html=1;fillColor=#f8cecc;strokeColor=#b85450;fontSize=9;" parent="user-flow" vertex="1">
                    <mxGeometry x="360" y="70" width="60" height="40" as="geometry"/>
                </mxCell>
                <mxCell id="record-audio" value="Record&#xa;Audio" style="rounded=1;whiteSpace=wrap;html=1;fillColor=#f8cecc;strokeColor=#b85450;fontSize=9;" parent="user-flow" vertex="1">
                    <mxGeometry x="430" y="70" width="60" height="40" as="geometry"/>
                </mxCell>
                <mxCell id="save-blob" value="Save Audio&#xa;Blob" style="rounded=1;whiteSpace=wrap;html=1;fillColor=#f8cecc;strokeColor=#b85450;fontSize=9;" parent="user-flow" vertex="1">
                    <mxGeometry x="500" y="70" width="60" height="40" as="geometry"/>
                </mxCell>
                <mxCell id="upload-audio" value="Upload to&#xa;Backend" style="rounded=1;whiteSpace=wrap;html=1;fillColor=#f8cecc;strokeColor=#b85450;fontSize=9;" parent="user-flow" vertex="1">
                    <mxGeometry x="360" y="120" width="60" height="40" as="geometry"/>
                </mxCell>
                <mxCell id="transcribe" value="Speech-to-Text&#xa;Transcription" style="rounded=1;whiteSpace=wrap;html=1;fillColor=#f8cecc;strokeColor=#b85450;fontSize=9;" parent="user-flow" vertex="1">
                    <mxGeometry x="430" y="120" width="60" height="40" as="geometry"/>
                </mxCell>
                <mxCell id="sentiment" value="Sentiment&#xa;Analysis" style="rounded=1;whiteSpace=wrap;html=1;fillColor=#f8cecc;strokeColor=#b85450;fontSize=9;" parent="user-flow" vertex="1">
                    <mxGeometry x="500" y="120" width="60" height="40" as="geometry"/>
                </mxCell>
                <mxCell id="tech-stack" value="Technology Stack" style="rounded=1;whiteSpace=wrap;html=1;fillColor=#fff2cc;strokeColor=#d6b656;fontSize=12;fontStyle=1;" parent="user-flow" vertex="1">
                    <mxGeometry x="360" y="180" width="220" height="30" as="geometry"/>
                </mxCell>
                <mxCell id="nextjs" value="Next.js 15.5.4" style="rounded=1;whiteSpace=wrap;html=1;fillColor=#dae8fc;strokeColor=#6c8ebf;fontSize=9;" parent="user-flow" vertex="1">
                    <mxGeometry x="360" y="220" width="70" height="25" as="geometry"/>
                </mxCell>
                <mxCell id="react" value="React 19.1.0" style="rounded=1;whiteSpace=wrap;html=1;fillColor=#dae8fc;strokeColor=#6c8ebf;fontSize=9;" parent="user-flow" vertex="1">
                    <mxGeometry x="440" y="220" width="70" height="25" as="geometry"/>
                </mxCell>
                <mxCell id="tailwind" value="Tailwind CSS 4" style="rounded=1;whiteSpace=wrap;html=1;fillColor=#dae8fc;strokeColor=#6c8ebf;fontSize=9;" parent="user-flow" vertex="1">
                    <mxGeometry x="520" y="220" width="70" height="25" as="geometry"/>
                </mxCell>
                <mxCell id="nextauth" value="NextAuth.js" style="rounded=1;whiteSpace=wrap;html=1;fillColor=#fff2cc;strokeColor=#d6b656;fontSize=9;" parent="user-flow" vertex="1">
                    <mxGeometry x="360" y="255" width="70" height="25" as="geometry"/>
                </mxCell>
                <mxCell id="python" value="Python/FastAPI" style="rounded=1;whiteSpace=wrap;html=1;fillColor=#f8cecc;strokeColor=#b85450;fontSize=9;" parent="user-flow" vertex="1">
                    <mxGeometry x="440" y="255" width="70" height="25" as="geometry"/>
                </mxCell>
                <mxCell id="chartjs" value="Chart.js" style="rounded=1;whiteSpace=wrap;html=1;fillColor=#e1d5e7;strokeColor=#9673a6;fontSize=9;" parent="user-flow" vertex="1">
                    <mxGeometry x="520" y="255" width="70" height="25" as="geometry"/>
                </mxCell>
                <mxCell id="frontend-to-backend" style="edgeStyle=orthogonalEdgeStyle;rounded=0;orthogonalLoop=1;jettySize=auto;html=1;strokeColor=#d79b00;strokeWidth=3;fillColor=#ffe6cc;" parent="1" source="api-layer" target="api-endpoints" edge="1">
                    <mxGeometry relative="1" as="geometry">
                        <Array as="points">
                            <mxPoint x="425" y="330"/>
                            <mxPoint x="1240" y="330"/>
                        </Array>
                    </mxGeometry>
                </mxCell>
                <mxCell id="games-to-api" style="edgeStyle=orthogonalEdgeStyle;rounded=0;orthogonalLoop=1;jettySize=auto;html=1;strokeColor=#82b366;strokeWidth=2;fillColor=#d5e8d4;" parent="1" source="games-suite" target="api-layer" edge="1">
                    <mxGeometry relative="1" as="geometry"/>
                </mxCell>
                <mxCell id="auth-to-google" style="edgeStyle=orthogonalEdgeStyle;rounded=0;orthogonalLoop=1;jettySize=auto;html=1;strokeColor=#d6b656;strokeWidth=2;fillColor=#fff2cc;exitX=0.5;exitY=1;exitDx=0;exitDy=0;" parent="1" source="auth-system" target="google-oauth" edge="1">
                    <mxGeometry relative="1" as="geometry">
                        <Array as="points">
                            <mxPoint x="90" y="200"/>
                        </Array>
                    </mxGeometry>
                </mxCell>
                <mxCell id="backend-to-ai" style="edgeStyle=orthogonalEdgeStyle;rounded=0;orthogonalLoop=1;jettySize=auto;html=1;strokeColor=#9673a6;strokeWidth=2;fillColor=#e1d5e7;" parent="1" source="ai-pipeline" target="openai-api" edge="1">
                    <mxGeometry relative="1" as="geometry"/>
                </mxCell>
                <mxCell id="backend-to-storage" style="edgeStyle=orthogonalEdgeStyle;rounded=0;orthogonalLoop=1;jettySize=auto;html=1;strokeColor=#82b366;strokeWidth=2;fillColor=#d5e8d4;" parent="1" source="data-processing" target="game-results" edge="1">
                    <mxGeometry relative="1" as="geometry">
                        <Array as="points">
                            <mxPoint x="730" y="300"/>
                        </Array>
                    </mxGeometry>
                </mxCell>
                <mxCell id="key-features" value="Key Features &amp; Specifications" style="swimlane;whiteSpace=wrap;html=1;fontSize=16;fontStyle=1;fillColor=#f8cecc;strokeColor=#b85450;" parent="1" vertex="1">
                    <mxGeometry x="50" y="1000" width="1500" height="300" as="geometry"/>
                </mxCell>
                <mxCell id="auth-features" value="Authentication &amp; Security" style="rounded=1;whiteSpace=wrap;html=1;fillColor=#fff2cc;strokeColor=#d6b656;fontSize=12;fontStyle=1;" parent="key-features" vertex="1">
                    <mxGeometry x="30" y="40" width="200" height="30" as="geometry"/>
                </mxCell>
                <mxCell id="auth-list" value="• Google OAuth 2.0 integration&#xa;• Session management (NextAuth.js)&#xa;• Protected routes &amp; middleware&#xa;• JWT token validation&#xa;• Automatic token refresh&#xa;• HTTPS enforcement" style="text;html=1;align=left;verticalAlign=top;whiteSpace=wrap;rounded=0;fontSize=10;fillColor=#fff2cc;strokeColor=#d6b656;" parent="key-features" vertex="1">
                    <mxGeometry x="30" y="80" width="200" height="100" as="geometry"/>
                </mxCell>
                <mxCell id="game-features" value="Cognitive Assessment Games" style="rounded=1;whiteSpace=wrap;html=1;fillColor=#d5e8d4;strokeColor=#82b366;fontSize=12;fontStyle=1;" parent="key-features" vertex="1">
                    <mxGeometry x="260" y="40" width="200" height="30" as="geometry"/>
                </mxCell>
                <mxCell id="game-list" value="• Stroop Color Test (60-second timer)&#xa;• Memory Game (3 difficulty levels)&#xa;• Object-Purpose Matching&#xa;• Speech Fluency Test&#xa;• Real-time metrics tracking&#xa;• Progressive difficulty&#xa;• Touch-friendly interfaces" style="text;html=1;align=left;verticalAlign=top;whiteSpace=wrap;rounded=0;fontSize=10;fillColor=#d5e8d4;strokeColor=#82b366;" parent="key-features" vertex="1">
                    <mxGeometry x="260" y="80" width="200" height="100" as="geometry"/>
                </mxCell>
                <mxCell id="ai-features" value="AI-Powered Analysis" style="rounded=1;whiteSpace=wrap;html=1;fillColor=#e1d5e7;strokeColor=#9673a6;fontSize=12;fontStyle=1;" parent="key-features" vertex="1">
                    <mxGeometry x="490" y="40" width="200" height="30" as="geometry"/>
                </mxCell>
                <mxCell id="ai-list" value="• Speech-to-text transcription&#xa;• Sentiment pattern analysis&#xa;• Risk assessment algorithms&#xa;• Performance scoring&#xa;• Pattern recognition&#xa;• Non-diagnostic analysis&#xa;• Personalized recommendations" style="text;html=1;align=left;verticalAlign=top;whiteSpace=wrap;rounded=0;fontSize=10;fillColor=#e1d5e7;strokeColor=#9673a6;" parent="key-features" vertex="1">
                    <mxGeometry x="490" y="80" width="200" height="100" as="geometry"/>
                </mxCell>
                <mxCell id="dashboard-features" value="Dashboard &amp; Analytics" style="rounded=1;whiteSpace=wrap;html=1;fillColor=#ffe6cc;strokeColor=#d79b00;fontSize=12;fontStyle=1;" parent="key-features" vertex="1">
                    <mxGeometry x="720" y="40" width="200" height="30" as="geometry"/>
                </mxCell>
                <mxCell id="dashboard-list" value="• Interactive progress charts&#xa;• Risk score visualization&#xa;• Historical data tracking&#xa;• Performance trends&#xa;• Comparative analysis&#xa;• Export capabilities&#xa;• Mobile-responsive design" style="text;html=1;align=left;verticalAlign=top;whiteSpace=wrap;rounded=0;fontSize=10;fillColor=#ffe6cc;strokeColor=#d79b00;" parent="key-features" vertex="1">
                    <mxGeometry x="720" y="80" width="200" height="100" as="geometry"/>
                </mxCell>
                <mxCell id="report-features" value="Reports &amp; Documentation" style="rounded=1;whiteSpace=wrap;html=1;fillColor=#f8cecc;strokeColor=#b85450;fontSize=12;fontStyle=1;" parent="key-features" vertex="1">
                    <mxGeometry x="950" y="40" width="200" height="30" as="geometry"/>
                </mxCell>
                <mxCell id="report-list" value="• Comprehensive PDF reports&#xa;• Clinical-style documentation&#xa;• Download functionality&#xa;• Email integration&#xa;• Historical summaries&#xa;• Risk assessment details&#xa;• Recommendation system" style="text;html=1;align=left;verticalAlign=top;whiteSpace=wrap;rounded=0;fontSize=10;fillColor=#f8cecc;strokeColor=#b85450;" parent="key-features" vertex="1">
                    <mxGeometry x="950" y="80" width="200" height="100" as="geometry"/>
                </mxCell>
                <mxCell id="tech-features" value="Technical Implementation" style="rounded=1;whiteSpace=wrap;html=1;fillColor=#dae8fc;strokeColor=#6c8ebf;fontSize=12;fontStyle=1;" parent="key-features" vertex="1">
                    <mxGeometry x="1180" y="40" width="200" height="30" as="geometry"/>
                </mxCell>
                <mxCell id="tech-list" value="• Production-ready codebase&#xa;• Cross-browser compatibility&#xa;• Performance optimization&#xa;• Error handling &amp; logging&#xa;• Lazy loading components&#xa;• Code splitting (Next.js)&#xa;• WCAG 2.1 accessibility" style="text;html=1;align=left;verticalAlign=top;whiteSpace=wrap;rounded=0;fontSize=10;fillColor=#dae8fc;strokeColor=#6c8ebf;" parent="key-features" vertex="1">
                    <mxGeometry x="1180" y="80" width="200" height="100" as="geometry"/>
                </mxCell>
                <mxCell id="performance-section" value="Performance &amp; Quality Metrics" style="rounded=1;whiteSpace=wrap;html=1;fillColor=#fff2cc;strokeColor=#d6b656;fontSize=14;fontStyle=1;" parent="key-features" vertex="1">
                    <mxGeometry x="30" y="200" width="300" height="30" as="geometry"/>
                </mxCell>
                <mxCell id="performance-list" value="• Lighthouse Score Optimization • Core Web Vitals Compliance&#xa;• Bundle Size Optimization • Image Optimization • API Response Caching" style="text;html=1;align=left;verticalAlign=top;whiteSpace=wrap;rounded=0;fontSize=10;fillColor=#fff2cc;strokeColor=#d6b656;" parent="key-features" vertex="1">
                    <mxGeometry x="30" y="240" width="300" height="40" as="geometry"/>
                </mxCell>
                <mxCell id="deployment-section" value="Deployment &amp; Infrastructure" style="rounded=1;whiteSpace=wrap;html=1;fillColor=#d5e8d4;strokeColor=#82b366;fontSize=14;fontStyle=1;" parent="key-features" vertex="1">
                    <mxGeometry x="360" y="200" width="300" height="30" as="geometry"/>
                </mxCell>
                <mxCell id="deployment-list" value="• Docker Containerization • Environment Variable Management&#xa;• CI/CD Pipeline Ready • Production Build Optimization • Monitoring Setup" style="text;html=1;align=left;verticalAlign=top;whiteSpace=wrap;rounded=0;fontSize=10;fillColor=#d5e8d4;strokeColor=#82b366;" parent="key-features" vertex="1">
                    <mxGeometry x="360" y="240" width="300" height="40" as="geometry"/>
                </mxCell>
                <mxCell id="api-section" value="API Integration Endpoints" style="rounded=1;whiteSpace=wrap;html=1;fillColor=#e1d5e7;strokeColor=#9673a6;fontSize=14;fontStyle=1;" parent="key-features" vertex="1">
                    <mxGeometry x="690" y="200" width="300" height="30" as="geometry"/>
                </mxCell>
                <mxCell id="api-list" value="• POST /api/games/results • POST /api/speech/upload • GET /api/results/report&#xa;• GET /api/results/score • GET /health • Error Handling &amp; Retries" style="text;html=1;align=left;verticalAlign=top;whiteSpace=wrap;rounded=0;fontSize=10;fillColor=#e1d5e7;strokeColor=#9673a6;" parent="key-features" vertex="1">
                    <mxGeometry x="690" y="240" width="300" height="40" as="geometry"/>
                </mxCell>
                <mxCell id="doc-section" value="Documentation &amp; Quality Assurance" style="rounded=1;whiteSpace=wrap;html=1;fillColor=#f8cecc;strokeColor=#b85450;fontSize=14;fontStyle=1;" parent="key-features" vertex="1">
                    <mxGeometry x="1020" y="200" width="300" height="30" as="geometry"/>
                </mxCell>
                <mxCell id="doc-list" value="• Comprehensive README • Architecture Documentation • Component Specs&#xa;• API Integration Guide • Setup Instructions • Testing Framework" style="text;html=1;align=left;verticalAlign=top;whiteSpace=wrap;rounded=0;fontSize=10;fillColor=#f8cecc;strokeColor=#b85450;" parent="key-features" vertex="1">
                    <mxGeometry x="1020" y="240" width="300" height="40" as="geometry"/>
                </mxCell>
            </root>
        </mxGraphModel>
    </diagram>
</mxfile>